<mxfile host="app.diagrams.net" modified="2023-10-02T11:41:33.319Z" agent="Mozilla/5.0 (Windows NT 10.0; Win64; x64; rv:109.0) Gecko/20100101 Firefox/118.0" etag="WizZsrQxlyGvnmz4gD0M" version="22.0.0" type="device">
  <diagram name="Page-1" id="NbJdueskdxbgubcl_R5I">
    <mxGraphModel dx="922" dy="473" grid="1" gridSize="10" guides="1" tooltips="1" connect="1" arrows="1" fold="1" page="1" pageScale="1" pageWidth="850" pageHeight="1100" math="0" shadow="0">
      <root>
        <mxCell id="0" />
        <mxCell id="1" parent="0" />
        <mxCell id="IPOeObjtuyeyihLrWlBP-1" value="" style="rounded=0;whiteSpace=wrap;html=1;" vertex="1" parent="1">
          <mxGeometry x="300" y="540" width="230" height="180" as="geometry" />
        </mxCell>
        <mxCell id="IPOeObjtuyeyihLrWlBP-30" style="edgeStyle=none;rounded=0;orthogonalLoop=1;jettySize=auto;html=1;exitX=1;exitY=0.5;exitDx=0;exitDy=0;entryX=0;entryY=0.5;entryDx=0;entryDy=0;fillColor=#fa6800;strokeColor=#C73500;" edge="1" parent="1" source="IPOeObjtuyeyihLrWlBP-2" target="IPOeObjtuyeyihLrWlBP-16">
          <mxGeometry relative="1" as="geometry" />
        </mxCell>
        <mxCell id="IPOeObjtuyeyihLrWlBP-2" value="Password, Salt1...Saltn, Hash1...Hashn" style="rounded=0;whiteSpace=wrap;html=1;" vertex="1" parent="1">
          <mxGeometry x="320" y="580" width="190" height="40" as="geometry" />
        </mxCell>
        <mxCell id="IPOeObjtuyeyihLrWlBP-27" style="edgeStyle=none;rounded=0;orthogonalLoop=1;jettySize=auto;html=1;exitX=1;exitY=0.5;exitDx=0;exitDy=0;entryX=0;entryY=0.5;entryDx=0;entryDy=0;fillColor=#d5e8d4;strokeColor=#82b366;" edge="1" parent="1" source="IPOeObjtuyeyihLrWlBP-3" target="IPOeObjtuyeyihLrWlBP-16">
          <mxGeometry relative="1" as="geometry" />
        </mxCell>
        <mxCell id="IPOeObjtuyeyihLrWlBP-3" value="Password, Salt1...Saltn, Hash1...Hashn" style="rounded=0;whiteSpace=wrap;html=1;" vertex="1" parent="1">
          <mxGeometry x="320" y="660" width="190" height="40" as="geometry" />
        </mxCell>
        <mxCell id="IPOeObjtuyeyihLrWlBP-5" value="Core controller" style="text;strokeColor=none;fillColor=none;html=1;fontSize=24;fontStyle=1;verticalAlign=middle;align=center;" vertex="1" parent="1">
          <mxGeometry x="365" y="500" width="100" height="40" as="geometry" />
        </mxCell>
        <mxCell id="IPOeObjtuyeyihLrWlBP-6" value="&lt;font style=&quot;font-size: 18px;&quot;&gt;Buffer 1&lt;/font&gt;" style="text;strokeColor=none;fillColor=none;html=1;fontSize=24;fontStyle=1;verticalAlign=middle;align=center;" vertex="1" parent="1">
          <mxGeometry x="320" y="540" width="100" height="40" as="geometry" />
        </mxCell>
        <mxCell id="IPOeObjtuyeyihLrWlBP-7" value="&lt;font style=&quot;font-size: 18px;&quot;&gt;Buffer 2&lt;/font&gt;" style="text;strokeColor=none;fillColor=none;html=1;fontSize=24;fontStyle=1;verticalAlign=middle;align=center;" vertex="1" parent="1">
          <mxGeometry x="320" y="625" width="80" height="30" as="geometry" />
        </mxCell>
        <mxCell id="IPOeObjtuyeyihLrWlBP-16" value="&lt;font style=&quot;font-size: 14px;&quot;&gt;Hash core&lt;/font&gt;" style="rounded=0;whiteSpace=wrap;html=1;" vertex="1" parent="1">
          <mxGeometry x="570" y="610" width="120" height="60" as="geometry" />
        </mxCell>
        <mxCell id="IPOeObjtuyeyihLrWlBP-29" style="edgeStyle=none;rounded=0;orthogonalLoop=1;jettySize=auto;html=1;exitX=1;exitY=0.5;exitDx=0;exitDy=0;entryX=0;entryY=0.5;entryDx=0;entryDy=0;fillColor=#fa6800;strokeColor=#C73500;" edge="1" parent="1" source="IPOeObjtuyeyihLrWlBP-24" target="IPOeObjtuyeyihLrWlBP-3">
          <mxGeometry relative="1" as="geometry" />
        </mxCell>
        <mxCell id="IPOeObjtuyeyihLrWlBP-24" value="External Memory" style="rounded=0;whiteSpace=wrap;html=1;" vertex="1" parent="1">
          <mxGeometry x="140" y="600" width="120" height="60" as="geometry" />
        </mxCell>
        <mxCell id="IPOeObjtuyeyihLrWlBP-25" value="" style="endArrow=classic;html=1;rounded=0;exitX=1;exitY=0.5;exitDx=0;exitDy=0;entryX=0;entryY=0.5;entryDx=0;entryDy=0;fillColor=#d5e8d4;strokeColor=#82b366;" edge="1" parent="1" source="IPOeObjtuyeyihLrWlBP-24" target="IPOeObjtuyeyihLrWlBP-2">
          <mxGeometry width="50" height="50" relative="1" as="geometry">
            <mxPoint x="400" y="690" as="sourcePoint" />
            <mxPoint x="450" y="640" as="targetPoint" />
          </mxGeometry>
        </mxCell>
      </root>
    </mxGraphModel>
  </diagram>
</mxfile>
